<svg width="17" height="18" viewBox="0 0 17 18" fill="none" xmlns="http://www.w3.org/2000/svg">
<path d="M16.7498 9.05168C16.7498 4.42506 12.9984 0.676758 8.37492 0.676758C3.7483 0.676758 0 4.42506 0 9.05168C0 13.2308 3.06156 16.6959 7.06634 17.3235V11.4731H4.93963V9.0522H7.06634V7.20606C7.06634 5.10762 8.31473 3.94874 10.2284 3.94874C11.1449 3.94874 12.1044 4.11205 12.1044 4.11205V6.1728H11.0465C10.008 6.1728 9.6835 6.81924 9.6835 7.48138V9.05168H12.006L11.6328 11.4726H9.6835V17.323C13.6851 16.6954 16.7498 13.2302 16.7498 9.05116V9.05168Z" fill="white"/>
</svg>
