<svg width="20" height="16" viewBox="0 0 20 16" fill="none" xmlns="http://www.w3.org/2000/svg">
<path d="M8 11.2143L13.19 8L8 4.78571V11.2143ZM19.56 2.825C19.69 3.32857 19.78 4.00357 19.84 4.86071C19.91 5.71786 19.94 6.45714 19.94 7.1L20 8C20 10.3464 19.84 12.0714 19.56 13.175C19.31 14.1393 18.73 14.7607 17.83 15.0286C17.36 15.1679 16.5 15.2643 15.18 15.3286C13.88 15.4036 12.69 15.4357 11.59 15.4357L10 15.5C5.81 15.5 3.2 15.3286 2.17 15.0286C1.27 14.7607 0.69 14.1393 0.44 13.175C0.31 12.6714 0.22 11.9964 0.16 11.1393C0.0900001 10.2821 0.0599999 9.54286 0.0599999 8.9L0 8C0 5.65357 0.16 3.92857 0.44 2.825C0.69 1.86071 1.27 1.23929 2.17 0.971429C2.64 0.832143 3.5 0.735714 4.82 0.671428C6.12 0.596428 7.31 0.564286 8.41 0.564286L10 0.5C14.19 0.5 16.8 0.671429 17.83 0.971429C18.73 1.23929 19.31 1.86071 19.56 2.825Z" fill="white"/>
</svg>
