<svg width="42" height="42" viewBox="0 0 42 42" fill="none" xmlns="http://www.w3.org/2000/svg">
<path d="M40.032 0H1.968C0.881104 0 0 0.881104 0 1.968V40.032C0 41.1189 0.881104 42 1.968 42H40.032C41.1189 42 42 41.1189 42 40.032V1.968C42 0.881104 41.1189 0 40.032 0Z" fill="url(#paint0_linear_2039_51)"/>
<path fill-rule="evenodd" clip-rule="evenodd" d="M27.075 34.206C25.9077 33.7848 24.3675 34.5428 24.3675 35.7837V36.2117C24.3675 36.8417 24.7212 37.4286 25.3123 37.6463C25.8638 37.8494 26.4331 38.0024 27.0135 38.103C28.0752 38.299 29.1529 38.3954 30.2325 38.391C31.2847 38.396 32.3345 38.2899 33.3645 38.0745C34.2892 37.8877 35.1715 37.5317 35.967 37.0245C36.7055 36.5478 37.3142 35.8953 37.7385 35.1255C38.4984 33.5315 38.5987 31.702 38.0175 30.0345C37.7722 29.411 37.4068 28.8417 36.942 28.359C36.4431 27.8458 35.8763 27.4032 35.2575 27.0435C34.545 26.6263 33.8048 26.2584 33.042 25.9425C32.442 25.6935 31.902 25.4515 31.422 25.2165C30.9957 25.0124 30.5877 24.772 30.2025 24.498C29.9008 24.2865 29.6388 24.0235 29.4285 23.721C29.2468 23.4464 29.1522 23.1233 29.157 22.794C29.153 22.491 29.2374 22.1933 29.4 21.9375C29.5765 21.6698 29.8121 21.4461 30.0885 21.2835C30.4264 21.0846 30.7941 20.9413 31.1775 20.859C31.6482 20.7545 32.1293 20.7041 32.6115 20.709C33.017 20.7104 33.4219 20.7395 33.8235 20.796C34.2571 20.8547 34.6862 20.9434 35.1075 21.0615C35.536 21.1803 35.9552 21.3307 36.3615 21.5115C36.8613 21.7343 37.488 21.3978 37.488 20.8505V18.9924C37.488 18.3049 37.0653 17.6776 36.4009 17.5006C36.0059 17.3954 35.6052 17.3117 35.2005 17.25C34.2568 17.1127 33.304 17.048 32.3505 17.0565C31.3082 17.0509 30.2689 17.1692 29.2545 17.409C28.3376 17.6185 27.4658 17.9909 26.6805 18.5085C25.951 18.9945 25.3487 19.6483 24.924 20.415C24.4739 21.2665 24.2513 22.2198 24.2775 23.1825C24.2442 24.4557 24.6636 25.6994 25.461 26.6925C26.4393 27.7936 27.6728 28.6378 29.0535 29.151C29.6835 29.411 30.271 29.6655 30.816 29.9145C31.3077 30.1333 31.7803 30.3927 32.229 30.69C32.5908 30.9254 32.9087 31.2224 33.168 31.5675C33.396 31.8806 33.517 32.2588 33.513 32.646C33.515 32.9362 33.4405 33.2218 33.297 33.474C33.1375 33.745 32.9133 33.9723 32.6445 34.1355C32.3081 34.3406 31.9402 34.4886 31.5555 34.5735C31.0544 34.6856 30.5419 34.7384 30.0285 34.731C29.0209 34.7292 28.0214 34.5515 27.075 34.206ZM16.6365 24.1815C16.6365 22.5247 17.9796 21.1815 19.6365 21.1815H20.7412C21.788 21.1815 22.6365 20.333 22.6365 19.2863C22.6365 18.2396 21.788 17.391 20.7412 17.391H7.80223C6.75552 17.391 5.90698 18.2396 5.90698 19.2863C5.90698 20.333 6.75551 21.1815 7.80223 21.1815H8.89348C10.5429 21.1815 11.88 22.5186 11.88 24.168V35.6843C11.88 36.9977 12.9448 38.0625 14.2582 38.0625C15.5717 38.0625 16.6365 36.9977 16.6365 35.6843V24.1815Z" fill="#161513"/>
<defs>
<linearGradient id="paint0_linear_2039_51" x1="21" y1="0" x2="21" y2="42" gradientUnits="userSpaceOnUse">
<stop stop-color="#FDFDFD"/>
<stop offset="1" stop-color="white" stop-opacity="0.18"/>
</linearGradient>
</defs>
</svg>
